<svg id="visual" viewBox="0 0 900 600" width="900" height="600" xmlns="http://www.w3.org/2000/svg" xmlns:xlink="http://www.w3.org/1999/xlink" version="1.1"><path d="M0 85L180 97L360 109L540 79L720 79L900 91L900 0L720 0L540 0L360 0L180 0L0 0Z" fill="#a8d5e2"></path><path d="M0 241L180 265L360 301L540 313L720 277L900 307L900 89L720 77L540 77L360 107L180 95L0 83Z" fill="#82c5da"></path><path d="M0 385L180 379L360 439L540 421L720 409L900 451L900 305L720 275L540 311L360 299L180 263L0 239Z" fill="#57b5d4"></path><path d="M0 601L180 601L360 601L540 601L720 601L900 601L900 449L720 407L540 419L360 437L180 377L0 383Z" fill="#00a5cf"></path></svg>